PathFileType	4	(X/Y/Z)	./resultDataOpenSim/trcMotMarkerGrf/sub06/qtm-14-03.trc
DataRate	CameraRate	NumFrames	NumMarkers	Units	OrigDataRate	OrigDataStartFrame	OrigNumFrames
250.000000	250.000000	7	24	m	250.000000	136	542
Frame#	Time	L.Toe.Tip			R.Toe.Tip			L.Ankle.Lat			R.Ankle.Lat			L.Ankle.Med			R.Ankle.Med			L.Heel			R.Heel			L.Knee.Lat			R.Knee.Lat			L.Knee.Med			R.Knee.Med			L.Thigh.Upper			R.Thigh.Upper			L.ASIS			R.ASIS			V.Sacral			L.Acromium			R.Acromium			C7			L.Elbow			R.Elbow			L.Wrist.Lat			R.Wrist.Lat
		X1	Y1	Z1	X2	Y2	Z2	X3	Y3	Z3	X4	Y4	Z4	X5	Y5	Z5	X6	Y6	Z6	X7	Y7	Z7	X8	Y8	Z8	X9	Y9	Z9	X10	Y10	Z10	X11	Y11	Z11	X12	Y12	Z12	X13	Y13	Z13	X14	Y14	Z14	X15	Y15	Z15	X16	Y16	Z16	X17	Y17	Z17	X18	Y18	Z18	X19	Y19	Z19	X20	Y20	Z20	X21	Y21	Z21	X22	Y22	Z22	X23	Y23	Z23	X24	Y24	Z24

136	0.54	-0.024174916	0.15071459	-0.065172486	-0.77310734	0.034617852	0.060741304	-0.14534455	0.10956808	-0.080553778	-0.89368084	0.090311556	0.083692637	-0.15003905	0.12693149	0.0037360274	-0.86507615	0.10721463	-9.0992807e-05	-0.18468377	0.043303724	-0.027851323	-0.95192675	0.087056681	0.020373115	-0.30500136	0.43859384	-0.09197007	-0.67762066	0.41758686	0.12738456	-0.32716192	0.43206602	0.033560794	-0.69344088	0.41985087	-0.0037925682	-0.49607638	0.77220014	-0.15141865	-0.57749495	0.76783588	0.19368288	-0.43702053	0.81777351	-0.094725136	-0.46540401	0.81531258	0.153857	-0.63601483	0.89287495	0.012904879	-0.51969043	1.2989596	-0.1675141	-0.52105533	1.2883641	0.19768519	-0.60084743	1.3332119	0.013611523	-0.6334263	1.0062911	-0.20338299	-0.53188145	0.96719208	0.2911927	-0.56636687	0.77860714	-0.26126093	-0.28676964	0.91606173	0.26883456
137	0.544	-0.01746045	0.14874149	-0.063365152	-0.77287221	0.034655061	0.060738548	-0.13864726	0.10796187	-0.079928119	-0.89229138	0.092010689	0.08434176	-0.14378516	0.12511336	0.0043901831	-0.86369027	0.10856944	0.00038905176	-0.17868298	0.041844363	-0.027786437	-0.95066659	0.089770932	0.021067883	-0.29665559	0.43814062	-0.091723594	-0.67260727	0.41684264	0.12747699	-0.31910698	0.4318535	0.033516912	-0.68797051	0.4189957	-0.0037067796	-0.48819488	0.7714857	-0.15158132	-0.56758866	0.76605398	0.19207483	-0.42927705	0.81681535	-0.094451887	-0.45890595	0.81396219	0.15406711	-0.6289147	0.89164968	0.01239155	-0.51303433	1.297478	-0.16797123	-0.51466615	1.287179	0.1973312	-0.59426471	1.331958	0.0131363	-0.62667977	1.004888	-0.20338624	-0.52470584	0.96589988	0.29076	-0.56118599	0.77693373	-0.26173323	-0.27963963	0.91516703	0.26828676
138	0.548	-0.011199349	0.1463487	-0.061477585	-0.77261492	0.034698309	0.060736801	-0.1324123	0.10613466	-0.079273553	-0.89077957	0.093786261	0.085045401	-0.13799129	0.12304619	0.0050451738	-0.86221875	0.11003587	0.00094699791	-0.17325389	0.040183142	-0.027736131	-0.94922826	0.092686644	0.021745971	-0.28822949	0.43777162	-0.091469429	-0.66735992	0.41610542	0.12761452	-0.31100206	0.43173739	0.03345758	-0.68239207	0.41814445	-0.0036166604	-0.48030498	0.77085174	-0.15172016	-0.55767924	0.76401373	0.19055565	-0.42146936	0.81593747	-0.094170364	-0.45238257	0.81264504	0.1543142	-0.62178148	0.89044197	0.011885973	-0.50632495	1.2960398	-0.16845488	-0.50822977	1.2860493	0.19693501	-0.58764108	1.3307338	0.012626505	-0.61989153	1.0035185	-0.20339545	-0.51753818	0.96467242	0.29029584	-0.55599281	0.77530249	-0.26223547	-0.2725562	0.91419093	0.26772579
139	0.552	-0.0053963845	0.14356943	-0.059605234	-0.77233968	0.034742789	0.060734542	-0.12662268	0.10412804	-0.078607403	-0.88914048	0.095639928	0.085801117	-0.13265067	0.12075927	0.0056875282	-0.86064131	0.11161746	0.0015718611	-0.16836802	0.038337091	-0.027709989	-0.94760297	0.09579783	0.022408569	-0.27974334	0.43748444	-0.091204468	-0.66178279	0.41537929	0.12784301	-0.30286892	0.43168891	0.033394507	-0.6766771	0.41729202	-0.003521481	-0.47235579	0.77029392	-0.15184203	-0.54995526	0.76240983	0.18962392	-0.41362813	0.81513985	-0.093882356	-0.44589432	0.81136836	0.15463375	-0.61461019	0.88925065	0.01138505	-0.4995619	1.2946464	-0.16896277	-0.50175186	1.2849801	0.19649572	-0.58098745	1.3295332	0.012083893	-0.61307954	1.0021863	-0.20341473	-0.5103821	0.96350892	0.28979954	-0.55069947	0.77373136	-0.26274792	-0.26552988	0.91313513	0.2671649
140	0.556	-4.96735e-05	0.14043937	-0.05783287	-0.77204688	0.034781897	0.060732398	-0.12127051	0.10196731	-0.077959119	-0.88738696	0.097588463	0.086595958	-0.12774567	0.11828249	0.0063105346	-0.85892606	0.11331406	0.0022260257	-0.16400042	0.036326521	-0.027675005	-0.94583306	0.099064823	0.023114483	-0.27121307	0.43726673	-0.090931975	-0.65586666	0.41465938	0.12817687	-0.2947277	0.43167344	0.033332114	-0.67083407	0.4164361	-0.0034143889	-0.46426685	0.76980437	-0.15196678	-0.54523709	0.76163033	0.1893745	-0.40580801	0.81441974	-0.093590474	-0.43944467	0.81013431	0.15502029	-0.60737186	0.88808956	0.010887085	-0.49274257	1.2932986	-0.16949067	-0.49523728	1.2839716	0.19601329	-0.57430644	1.3283542	0.011511314	-0.60623467	1.0008999	-0.20345583	-0.50324863	0.96240857	0.28927065	-0.54526051	0.77222767	-0.263251	-0.25856679	0.91200266	0.26661065
141	0.56	0.0048539812	0.1369853	-0.056192628	-0.77172792	0.034811987	0.060732931	-0.11635222	0.099660307	-0.077332945	-0.88552751	0.099677819	0.087413875	-0.12325216	0.11564771	0.0069186633	-0.85704429	0.11513509	0.0028725769	-0.16012222	0.034174135	-0.027591421	-0.94394163	0.10245887	0.023908423	-0.26265757	0.43709948	-0.090661647	-0.64972329	0.41393438	0.12857081	-0.28659234	0.43165897	0.033273266	-0.66490386	0.41557628	-0.0032896619	-0.4559995	0.76937768	-0.15210872	-0.54239698	0.7613469	0.18953338	-0.39801708	0.81376596	-0.093303059	-0.43294914	0.80893716	0.1554127	-0.60002564	0.88697857	0.010394751	-0.48586438	1.2919961	-0.17003304	-0.48868634	1.283019	0.19549346	-0.56759703	1.3272039	0.010913103	-0.59929782	0.99966479	-0.20352846	-0.49614969	0.96137367	0.28871273	-0.53965764	0.77079806	-0.2637305	-0.25166379	0.91079932	0.2660591
142	0.564	0.009328287	0.13323404	-0.054685713	-0.77136934	0.034832749	0.060735923	-0.11186	0.097204386	-0.07670844	-0.88357392	0.10195798	0.088231517	-0.11913501	0.11289174	0.007529214	-0.85498504	0.11707392	0.0035034267	-0.15670225	0.031907241	-0.027429389	-0.94187127	0.1059912	0.02476143	-0.25410157	0.43696612	-0.090403803	-0.64344089	0.41320714	0.12897225	-0.27846968	0.43162241	0.033222448	-0.65889099	0.41471207	-0.0031427877	-0.44761015	0.7690126	-0.15225986	-0.53927497	0.76089276	0.18957826	-0.39021574	0.81316404	-0.093027904	-0.42630531	0.80777053	0.15574108	-0.59254835	0.88592663	0.0099204206	-0.47892882	1.2907393	-0.17058634	-0.48209639	1.2821183	0.19494443	-0.56085981	1.3260878	0.010291743	-0.59220347	0.9984803	-0.20363106	-0.48908988	0.96041163	0.28813107	-0.53389318	0.76944463	-0.26418689	-0.24481842	0.9095327	0.26550348
